<svg width="32" height="32" viewBox="0 0 32 32" fill="none" xmlns="http://www.w3.org/2000/svg">
  <!-- Purple segments -->
  <path d="M16 2L20.5 8H11.5L16 2Z" fill="#9467B8"/>
  <path d="M2 16L8 11.5V20.5L2 16Z" fill="#9467B8"/>
  <path d="M30 16L24 20.5V11.5L30 16Z" fill="#9467B8"/>
  <path d="M16 30L11.5 24H20.5L16 30Z" fill="#9467B8"/>
  
  <!-- Blue cross -->
  <path d="M14 2H18V30H14V2Z" fill="#0066CC"/>
  <path d="M2 14H30V18H2V14Z" fill="#0066CC"/>
  
  <!-- White circle -->
  <circle cx="16" cy="16" r="6" fill="white"/>
  
  <!-- Blue star -->
  <path d="M16 11L17.2 14.4H21L18.4 16.6L19.6 20L16 17.8L12.4 20L13.6 16.6L11 14.4H14.8L16 11Z" fill="#0066CC"/>
</svg>
